<mxfile host="app.diagrams.net" modified="2024-01-21T15:26:36.615Z" agent="Mozilla/5.0 (Windows NT 10.0; Win64; x64) AppleWebKit/537.36 (KHTML, like Gecko) Chrome/120.0.0.0 Safari/537.36" etag="v8PIymUfnG7kTJ4kwER9" version="22.1.18" type="device">
  <diagram id="R2lEEEUBdFMjLlhIrx00" name="Page-1">
    <mxGraphModel dx="2250" dy="743" grid="1" gridSize="10" guides="1" tooltips="1" connect="1" arrows="1" fold="1" page="1" pageScale="1" pageWidth="850" pageHeight="1100" math="0" shadow="0" extFonts="Permanent Marker^https://fonts.googleapis.com/css?family=Permanent+Marker">
      <root>
        <mxCell id="0" />
        <mxCell id="1" parent="0" />
        <mxCell id="C-vyLk0tnHw3VtMMgP7b-1" value="" style="edgeStyle=entityRelationEdgeStyle;endArrow=ERzeroToMany;startArrow=ERone;endFill=1;startFill=0;exitX=1;exitY=0.5;exitDx=0;exitDy=0;" parent="1" source="1MNlCb5xrKJEFnWuXBaU-1" edge="1">
          <mxGeometry width="100" height="100" relative="1" as="geometry">
            <mxPoint x="290" y="342.5" as="sourcePoint" />
            <mxPoint x="460" y="347.5" as="targetPoint" />
            <Array as="points">
              <mxPoint x="320" y="370" />
              <mxPoint x="290" y="347.5" />
              <mxPoint x="380" y="452.5" />
              <mxPoint x="450" y="340" />
            </Array>
          </mxGeometry>
        </mxCell>
        <mxCell id="C-vyLk0tnHw3VtMMgP7b-12" value="" style="edgeStyle=entityRelationEdgeStyle;endArrow=ERzeroToMany;startArrow=ERone;endFill=1;startFill=0;entryX=0;entryY=0.5;entryDx=0;entryDy=0;" parent="1" source="1MNlCb5xrKJEFnWuXBaU-2" target="1MNlCb5xrKJEFnWuXBaU-3" edge="1">
          <mxGeometry width="100" height="100" relative="1" as="geometry">
            <mxPoint x="700" y="165" as="sourcePoint" />
            <mxPoint x="700" y="355" as="targetPoint" />
          </mxGeometry>
        </mxCell>
        <mxCell id="1MNlCb5xrKJEFnWuXBaU-1" value="Person" style="rounded=1;whiteSpace=wrap;html=1;" vertex="1" parent="1">
          <mxGeometry x="60" y="315" width="120" height="60" as="geometry" />
        </mxCell>
        <mxCell id="1MNlCb5xrKJEFnWuXBaU-2" value="Interest" style="rounded=1;whiteSpace=wrap;html=1;" vertex="1" parent="1">
          <mxGeometry x="450" y="315" width="120" height="60" as="geometry" />
        </mxCell>
        <mxCell id="1MNlCb5xrKJEFnWuXBaU-3" value="InterestLink" style="rounded=1;whiteSpace=wrap;html=1;" vertex="1" parent="1">
          <mxGeometry x="880" y="315" width="120" height="60" as="geometry" />
        </mxCell>
        <mxCell id="1MNlCb5xrKJEFnWuXBaU-4" value="PersonId (PK)" style="ellipse;whiteSpace=wrap;html=1;" vertex="1" parent="1">
          <mxGeometry x="-160" y="295" width="100" height="80" as="geometry" />
        </mxCell>
        <mxCell id="1MNlCb5xrKJEFnWuXBaU-5" value="LastName" style="ellipse;whiteSpace=wrap;html=1;" vertex="1" parent="1">
          <mxGeometry x="-30" y="130" width="120" height="80" as="geometry" />
        </mxCell>
        <mxCell id="1MNlCb5xrKJEFnWuXBaU-6" value="PhoneNumber" style="ellipse;whiteSpace=wrap;html=1;" vertex="1" parent="1">
          <mxGeometry x="120" y="130" width="120" height="80" as="geometry" />
        </mxCell>
        <mxCell id="1MNlCb5xrKJEFnWuXBaU-7" value="FirstName" style="ellipse;whiteSpace=wrap;html=1;" vertex="1" parent="1">
          <mxGeometry x="-130" y="190" width="120" height="80" as="geometry" />
        </mxCell>
        <mxCell id="1MNlCb5xrKJEFnWuXBaU-8" value="" style="endArrow=none;html=1;rounded=0;entryX=1;entryY=1;entryDx=0;entryDy=0;exitX=0;exitY=0;exitDx=0;exitDy=0;" edge="1" parent="1" source="1MNlCb5xrKJEFnWuXBaU-2" target="1MNlCb5xrKJEFnWuXBaU-14">
          <mxGeometry width="50" height="50" relative="1" as="geometry">
            <mxPoint x="310" y="530" as="sourcePoint" />
            <mxPoint x="360" y="480" as="targetPoint" />
          </mxGeometry>
        </mxCell>
        <mxCell id="1MNlCb5xrKJEFnWuXBaU-9" value="" style="endArrow=none;html=1;rounded=0;entryX=0;entryY=0.5;entryDx=0;entryDy=0;" edge="1" parent="1" source="1MNlCb5xrKJEFnWuXBaU-4" target="1MNlCb5xrKJEFnWuXBaU-1">
          <mxGeometry width="50" height="50" relative="1" as="geometry">
            <mxPoint x="-50" y="340" as="sourcePoint" />
            <mxPoint x="-10" y="330" as="targetPoint" />
          </mxGeometry>
        </mxCell>
        <mxCell id="1MNlCb5xrKJEFnWuXBaU-10" value="" style="endArrow=none;html=1;rounded=0;entryX=0;entryY=0.25;entryDx=0;entryDy=0;exitX=1;exitY=1;exitDx=0;exitDy=0;" edge="1" parent="1" source="1MNlCb5xrKJEFnWuXBaU-7" target="1MNlCb5xrKJEFnWuXBaU-1">
          <mxGeometry width="50" height="50" relative="1" as="geometry">
            <mxPoint x="-30" y="290" as="sourcePoint" />
            <mxPoint x="20" y="240" as="targetPoint" />
          </mxGeometry>
        </mxCell>
        <mxCell id="1MNlCb5xrKJEFnWuXBaU-11" value="" style="endArrow=none;html=1;rounded=0;exitX=0.683;exitY=0.947;exitDx=0;exitDy=0;exitPerimeter=0;" edge="1" parent="1" source="1MNlCb5xrKJEFnWuXBaU-5" target="1MNlCb5xrKJEFnWuXBaU-1">
          <mxGeometry width="50" height="50" relative="1" as="geometry">
            <mxPoint x="-80" y="500" as="sourcePoint" />
            <mxPoint x="90" y="310" as="targetPoint" />
          </mxGeometry>
        </mxCell>
        <mxCell id="1MNlCb5xrKJEFnWuXBaU-12" value="" style="endArrow=none;html=1;rounded=0;entryX=0.5;entryY=1;entryDx=0;entryDy=0;exitX=0.75;exitY=0;exitDx=0;exitDy=0;" edge="1" parent="1" source="1MNlCb5xrKJEFnWuXBaU-1" target="1MNlCb5xrKJEFnWuXBaU-6">
          <mxGeometry width="50" height="50" relative="1" as="geometry">
            <mxPoint x="160" y="530" as="sourcePoint" />
            <mxPoint x="210" y="480" as="targetPoint" />
          </mxGeometry>
        </mxCell>
        <mxCell id="1MNlCb5xrKJEFnWuXBaU-14" value="InterestId (PK)" style="ellipse;whiteSpace=wrap;html=1;" vertex="1" parent="1">
          <mxGeometry x="330" y="140" width="120" height="80" as="geometry" />
        </mxCell>
        <mxCell id="1MNlCb5xrKJEFnWuXBaU-15" value="Title" style="ellipse;whiteSpace=wrap;html=1;" vertex="1" parent="1">
          <mxGeometry x="460" y="80" width="120" height="80" as="geometry" />
        </mxCell>
        <mxCell id="1MNlCb5xrKJEFnWuXBaU-16" value="Description" style="ellipse;whiteSpace=wrap;html=1;" vertex="1" parent="1">
          <mxGeometry x="590" y="140" width="120" height="80" as="geometry" />
        </mxCell>
        <mxCell id="1MNlCb5xrKJEFnWuXBaU-17" value="" style="endArrow=none;html=1;rounded=0;" edge="1" parent="1" target="1MNlCb5xrKJEFnWuXBaU-16">
          <mxGeometry width="50" height="50" relative="1" as="geometry">
            <mxPoint x="560" y="310" as="sourcePoint" />
            <mxPoint x="490" y="340" as="targetPoint" />
          </mxGeometry>
        </mxCell>
        <mxCell id="1MNlCb5xrKJEFnWuXBaU-18" value="" style="endArrow=none;html=1;rounded=0;entryX=0.5;entryY=1;entryDx=0;entryDy=0;exitX=0.5;exitY=0;exitDx=0;exitDy=0;" edge="1" parent="1" source="1MNlCb5xrKJEFnWuXBaU-2" target="1MNlCb5xrKJEFnWuXBaU-15">
          <mxGeometry width="50" height="50" relative="1" as="geometry">
            <mxPoint x="440" y="390" as="sourcePoint" />
            <mxPoint x="490" y="340" as="targetPoint" />
          </mxGeometry>
        </mxCell>
        <mxCell id="1MNlCb5xrKJEFnWuXBaU-19" value="PersonId (FK)" style="ellipse;whiteSpace=wrap;html=1;" vertex="1" parent="1">
          <mxGeometry x="1080" y="230" width="120" height="80" as="geometry" />
        </mxCell>
        <mxCell id="1MNlCb5xrKJEFnWuXBaU-20" value="URL" style="ellipse;whiteSpace=wrap;html=1;" vertex="1" parent="1">
          <mxGeometry x="950" y="150" width="120" height="80" as="geometry" />
        </mxCell>
        <mxCell id="1MNlCb5xrKJEFnWuXBaU-21" value="InterestLinkId (PK)" style="ellipse;whiteSpace=wrap;html=1;" vertex="1" parent="1">
          <mxGeometry x="790" y="120" width="120" height="80" as="geometry" />
        </mxCell>
        <mxCell id="1MNlCb5xrKJEFnWuXBaU-22" value="InterestId (FK)" style="ellipse;whiteSpace=wrap;html=1;" vertex="1" parent="1">
          <mxGeometry x="1090" y="360" width="120" height="80" as="geometry" />
        </mxCell>
        <mxCell id="1MNlCb5xrKJEFnWuXBaU-27" value="" style="endArrow=none;html=1;rounded=0;exitX=0.148;exitY=0.029;exitDx=0;exitDy=0;exitPerimeter=0;" edge="1" parent="1" source="1MNlCb5xrKJEFnWuXBaU-3" target="1MNlCb5xrKJEFnWuXBaU-21">
          <mxGeometry width="50" height="50" relative="1" as="geometry">
            <mxPoint x="790" y="390" as="sourcePoint" />
            <mxPoint x="840" y="340" as="targetPoint" />
          </mxGeometry>
        </mxCell>
        <mxCell id="1MNlCb5xrKJEFnWuXBaU-29" value="" style="endArrow=none;html=1;rounded=0;entryX=0.391;entryY=1.004;entryDx=0;entryDy=0;entryPerimeter=0;exitX=0.5;exitY=0;exitDx=0;exitDy=0;" edge="1" parent="1" source="1MNlCb5xrKJEFnWuXBaU-3" target="1MNlCb5xrKJEFnWuXBaU-20">
          <mxGeometry width="50" height="50" relative="1" as="geometry">
            <mxPoint x="450" y="390" as="sourcePoint" />
            <mxPoint x="500" y="340" as="targetPoint" />
          </mxGeometry>
        </mxCell>
        <mxCell id="1MNlCb5xrKJEFnWuXBaU-30" value="" style="endArrow=none;html=1;rounded=0;entryX=-0.011;entryY=0.659;entryDx=0;entryDy=0;entryPerimeter=0;exitX=1;exitY=1;exitDx=0;exitDy=0;" edge="1" parent="1" source="1MNlCb5xrKJEFnWuXBaU-3" target="1MNlCb5xrKJEFnWuXBaU-22">
          <mxGeometry width="50" height="50" relative="1" as="geometry">
            <mxPoint x="450" y="390" as="sourcePoint" />
            <mxPoint x="500" y="340" as="targetPoint" />
          </mxGeometry>
        </mxCell>
        <mxCell id="1MNlCb5xrKJEFnWuXBaU-31" value="" style="endArrow=none;html=1;rounded=0;entryX=0.01;entryY=0.644;entryDx=0;entryDy=0;entryPerimeter=0;" edge="1" parent="1" source="1MNlCb5xrKJEFnWuXBaU-3" target="1MNlCb5xrKJEFnWuXBaU-19">
          <mxGeometry width="50" height="50" relative="1" as="geometry">
            <mxPoint x="450" y="390" as="sourcePoint" />
            <mxPoint x="500" y="340" as="targetPoint" />
          </mxGeometry>
        </mxCell>
      </root>
    </mxGraphModel>
  </diagram>
</mxfile>
